# AST/ASF file generated using VICON BodyLanguage
# -----------------------------------------------
:version 1.10
:name VICON
:units
  mass 1.0
  length 0.45
  angle deg
:documentation
   .ast/.asf automatically generated from VICON data using
   VICON BodyBuilder and BodyLanguage model FoxedUp or BRILLIANT.MOD
:root
   order TX TY TZ RX RY RZ
   axis XYZ
   position 0 0 0  
   orientation 0 0 0 
:bonedata
  begin
     id 1 
     name lhipjoint
     direction 0.714689 -0.624256 0.315473 
     length 2.45343 
     axis 0 0 0  XYZ
  end
  begin
     id 2 
     name lfemur
     direction 0.34202 -0.939693 0  
     length 6.59069  
     axis 0 0 20  XYZ
    dof rx ry rz
    limits (-160.0 20.0)
           (-70.0 70.0)
           (-60.0 70.0)
  end
  begin
     id 3 
     name ltibia
     direction 0.34202 -0.939693 0   
     length 6.73476   
     axis 0 0 20   XYZ
    dof rx
    limits (-10.0 170.0)
  end
  begin
     id 4 
     name lfoot
     direction 0.0718085 -0.197292 0.977711   
     length 1.52607   
     axis -90 7.62852e-016 20   XYZ
    dof rx rz
    limits (-45.0 90.0)
           (-70.0 20.0)
  end
  begin
     id 5 
     name ltoes
     direction 1.53553e-011 -4.22024e-011 1   
     length 0.777832   
     axis -90 7.62852e-016 20   XYZ
    dof rx
    limits (-90.0 20.0)
  end
  begin
     id 6 
     name rhipjoint
     direction -0.727419 -0.612432 0.309497   
     length 2.50079  
     axis 0 0 0  XYZ 
  end
  begin
     id 7 
     name rfemur
     direction -0.34202 -0.939693 0   
     length 6.51665   
     axis 0 0 -20   XYZ
    dof rx ry rz
    limits (-160.0 20.0)
           (-70.0 70.0)
           (-70.0 60.0)
  end
  begin
     id 8 
     name rtibia
     direction -0.34202 -0.939693 0   
     length 6.48919   
     axis 0 0 -20   XYZ
    dof rx
    limits (-10.0 170.0)
 end
 begin
     id 9 
     name rfoot
     direction -0.112205 -0.308282 0.944655   
     length 1.68717  
     axis -90 -7.62852e-016 -20   XYZ
    dof rx rz
    limits (-45.0 90.0)
           (-20.0 70.0)
  end
  begin
     id 10 
     name rtoes
     direction -1.53583e-011 -4.21993e-011 1   
     length 0.846859   
     axis -90 -7.62852e-016 -20   XYZ
    dof rx
    limits (-90.0 20.0)
  end
  begin
     id 11 
     name lowerback
     direction -0.00119603 0.996364 -0.0851956   
     length 1.67242   
     axis 0 0 0   XYZ
    dof rx ry rz
    limits (-20.0 45.0)
           (-30.0 30.0)
           (-30.0 30.0)
  end
  begin
     id 12 
     name upperback
     direction -0.00531001 0.998318 0.0577248   
     length 1.64819   
     axis 0 0 0   XYZ
    dof rx ry rz
    limits (-20.0 45.0)
           (-30.0 30.0)
           (-30.0 30.0)
  end
  begin
     id 13 
     name thorax
     direction -0.00653676 0.995132 0.0983291   
     length 1.67429   
     axis 0 0 0   XYZ
    dof rx ry rz
    limits (-20.0 45.0)
           (-30.0 30.0)
           (-30.0 30.0)
  end
  begin
     id 14 
     name lowerneck
     direction 0.0141424 0.999886 0.00525412   
     length 1.59623   
     axis 0 0 0   XYZ
    dof rx ry rz
    limits (-20.0 45.0)
           (-30.0 30.0)
           (-30.0 30.0)
  end
  begin
     id 15 
     name upperneck
     direction -0.0640064 0.987178 -0.146232   
     length 1.59576   
     axis 0 0 0   XYZ
    dof rx ry rz
    limits (-20.0 45.0)
           (-30.0 30.0)
           (-30.0 30.0)
  end
  begin
     id 16
     name head
     direction -0.0222942 0.998496 -0.0500859  
     length 1.60959  
     axis 0 0 0   XYZ
    dof rx ry rz
    limits (-20.0 45.0)
           (-30.0 30.0)
           (-30.0 30.0)
  end
  begin
     id 17 
     name lclavicle
     direction 0.908549 0.392612 0.142806  
     length 2.80649  
     axis 0 0 0   XYZ
    dof ry rz
    limits (-20.0 10.0)
           (0.0 20.0)
  end
  begin
     id 18 
     name lhumerus
     direction 1 -4.48968e-011 1.08832e-028   
     length 4.2884   
     axis -180 -30 -90   XYZ
    dof rx ry rz
    limits (-60.0 90.0)
           (-90.0 90.0)
           (-90.0 90.0)
  end
  begin
     id 19
     name lradius
     direction 1 -4.48952e-011 -3.02642e-028   
     length 3.06552   
     axis -180 -30 -90   XYZ
    dof rx
    limits (-10.0 170.0)
  end
  begin
     id 20
     name lwrist
     direction 1 -4.49014e-011 1.58672e-027   
     length 1.53276   
     axis -1.65735e-015 90 90   XYZ
    dof ry
    limits (-180.0 0.0)
 end
  begin
     id 21 
     name lhand
     direction 1 -4.48928e-011 3.17344e-027   
     length 0.753045   
     axis -2.02492e-015 90 90   XYZ
    dof rx rz
    limits (-90.0 90.0)
           (-45.0 45.0)
  end
  begin
     id 22 
     name lfingers
     direction 1 -4.48958e-011 6.34687e-027   
     length 0.607124   
     axis -4.04985e-015 90 90   XYZ
    dof rx
    limits (0.0 90.0)
  end
  begin
     id 23
     name lthumb
     direction 0.707107 -6.34905e-011 0.707107   
     length 0.871712   
     axis -90 45 2.85299e-015   XYZ
    dof rx rz
    limits (-45.0 45.0)
           (-45.0 45.0)
  end
  begin
     id 24 
     name rclavicle
     direction -0.885098 0.45949 0.0739604   
     length 2.9478  
     axis 0 0 0   XYZ 
    dof ry rz
    limits (-10.0 20.0)
           (-20.0 0.0)
  end
  begin
     id 25 
     name rhumerus
     direction -1 -4.4898e-011 -2.61739e-027  
     length 4.52172   
     axis -180 30 90   XYZ
    dof rx ry rz
    limits (-90.0 60.0)
           (-90.0 90.0)
           (-90.0 90.0)
  end
  begin
     id 26 
     name rradius
     direction -1 -4.48945e-011 9.02552e-028   
     length 2.8914   
     axis -180 30 90   XYZ
    dof rx
    limits (-10.0 170.0)
  end
  begin
     id 27 
     name rwrist
     direction -1 -4.49018e-011 1.58672e-027   
     length 1.4457   
     axis -1.65735e-015 -90 -90   XYZ
    dof ry
    limits (-180.0 0.0)
  end
  begin
     id 28
     name rhand
     direction -1 -4.48825e-011 3.17344e-027   
     length 0.680541   
     axis -2.02492e-015 -90 -90   XYZ
    dof rx rz
    limits (-90.0 90.0)
           (-45.0 45.0)
  end
  begin
     id 29
     name rfingers
     direction -1 -4.49067e-011 6.34687e-027   
     length 0.54867   
     axis -4.04985e-015 -90 -90   XYZ
    dof rx
    limits (0.0 90.0)
  end
  begin
     id 30
     name rthumb
     direction -0.707107 -6.34833e-011 0.707107   
     length 0.787783   
     axis -90 -45 -2.85299e-015   XYZ
    dof rx rz
    limits (-45.0 45.0)
           (-45.0 45.0)
  end
:hierarchy
  begin
    root lhipjoint rhipjoint lowerback
    lhipjoint lfemur
    lfemur ltibia
    ltibia lfoot
    lfoot ltoes
    rhipjoint rfemur
    rfemur rtibia
    rtibia rfoot
    rfoot rtoes
    lowerback upperback
    upperback thorax
    thorax lowerneck lclavicle rclavicle
    lowerneck upperneck
    upperneck head
    lclavicle lhumerus
    lhumerus lradius
    lradius lwrist
    lwrist lhand lthumb
    lhand lfingers
    rclavicle rhumerus
    rhumerus rradius
    rradius rwrist
    rwrist rhand rthumb
    rhand rfingers
  end

#!OML:ASF E:\emotionWalksFemale\Project 1\Capture day 1\Session 1\Female1.ASF
:FULLY-SPECIFIED
:DEGREES
139
root 8.3982 15.2742 32.9682 179.685 -3.2686 -176.536
lowerback 8.08584 2.22066 1.57181
upperback -4.67763 3.01963 -0.893891
thorax -9.38603 1.29729 -2.31141
lowerneck -6.11246 -5.23312 -10.1657
upperneck 12.3194 -7.92539 11.3397
head 5.55278 -3.83568 4.66809
rclavicle 4.53229e-014 -3.10104e-014
rhumerus -36.7378 11.0996 -88.4925
rradius 33.3829
rwrist 15.4368
rhand -4.22368 -53.7084
rfingers 7.12502
rthumb 21.5392 -82.5307
lclavicle 4.53229e-014 -3.10104e-014
lhumerus -44.2566 1.61969 79.4607
lradius 42.0284
lwrist -5.34133
lhand -8.91251 -32.9669
lfingers 7.12502
lthumb 17.0307 -3.69348
rfemur 0.809141 20.4908 35.3213
rtibia 14.2192
rfoot -14.6978 -33.5855
rtoes 7.94485
lfemur -28.3435 -1.9086 -18.3724
ltibia 69.7706
lfoot -13.0591 0.0934068
ltoes -25.0502
140
root 8.40041 15.2635 32.8807 179.637 -2.9109 -176.506
lowerback 7.93295 2.25566 1.67058
upperback -4.49111 3.08548 -0.864423
thorax -9.08494 1.33537 -2.33178
lowerneck -6.12161 -5.16245 -10.1298
upperneck 12.0521 -7.7828 11.3083
head 5.45359 -3.76081 4.66399
rclavicle 3.23025e-015 -3.18055e-015
rhumerus -36.1802 11.379 -88.7525
rradius 33.6371
rwrist 15.0853
rhand -3.91098 -53.9216
rfingers 7.12502
rthumb 21.8394 -82.7092
lclavicle 3.23025e-015 -3.18055e-015
lhumerus -44.3297 2.38872 79.1186
lradius 41.8579
lwrist -5.80596
lhand -8.63758 -33.0885
lfingers 7.12502
lthumb 17.2953 -3.83808
rfemur 1.30743 20.6477 35.5726
rtibia 14.1719
rfoot -15.8394 -33.4089
rtoes 10.3465
lfemur -29.08 -2.15203 -18.595
ltibia 68.8332
lfoot -13.5822 0.724672
ltoes -25.6139
141
root 8.40275 15.2571 32.7882 179.493 -2.4346 -176.489
lowerback 7.41522 2.34294 1.76068
upperback -4.02507 3.21868 -0.845299
thorax -8.26436 1.42388 -2.33912
lowerneck -6.14903 -5.14716 -10.0579
upperneck 11.4994 -7.67536 11.2716
head 5.27323 -3.69666 4.64833
rclavicle 4.22417e-014 4.77083e-015
rhumerus -35.2999 11.6339 -88.9478
rradius 33.9048
rwrist 14.6756
rhand -3.74763 -53.9007
rfingers 7.12502
rthumb 21.9963 -82.67
lclavicle 4.22417e-014 4.77083e-015
lhumerus -43.8662 3.37818 78.695
lradius 41.4897
lwrist -6.52683
lhand -8.50217 -33.1572
lfingers 7.12502
lthumb 17.4256 -3.91829
rfemur 2.039 20.8185 35.8587
rtibia 13.9697
rfoot -15.9401 -33.3148
rtoes 10.3349
lfemur -29.5441 -2.17656 -18.8163
ltibia 67.7126
lfoot -14.2961 1.41649
ltoes -27.7645
142
root 8.40503 15.2523 32.6926 179.218 -1.94791 -176.497
lowerback 8.10577 2.47887 1.96968
upperback -4.27252 3.4278 -0.939561
thorax -8.90995 1.49155 -2.63261
lowerneck -5.6637 -5.05766 -10.0186
upperneck 11.5209 -7.61367 11.2267
head 5.18541 -3.69029 4.64379
rclavicle 2.44505e-014 3.97569e-015
rhumerus -35.7346 11.5312 -89.4342
rradius 34.3145
rwrist 14.5401
rhand -3.60953 -53.9106
rfingers 7.12502
rthumb 22.1289 -82.6642
lclavicle 2.44505e-014 3.97569e-015
lhumerus -44.2806 2.84356 78.6087
lradius 40.6802
lwrist -6.12465
lhand -8.73311 -33.219
lfingers 7.12502
lthumb 17.2033 -3.96048
rfemur 2.94247 20.7533 36.1383
rtibia 13.7376
rfoot -16.1373 -33.0649
rtoes 9.89041
lfemur -29.7538 -2.12915 -19.0467
ltibia 66.4173
lfoot -15.1624 1.9641
ltoes -28.5664
143
root 8.40694 15.2426 32.6053 179.163 -1.63327 -176.579
lowerback 8.35397 2.51049 1.99984
upperback -4.31881 3.47604 -0.975053
thorax -9.09995 1.50661 -2.71054
lowerneck -5.71304 -4.98292 -9.91642
upperneck 11.6211 -7.50239 11.0579
head 5.20204 -3.63823 4.58096
rclavicle 4.12478e-015 -5.56597e-015
rhumerus -35.657 11.7969 -89.8599
rradius 34.6399
rwrist 14.3986
rhand -2.88284 -54.1745
rfingers 7.12502
rthumb 22.8264 -82.8438
lclavicle 4.12478e-015 -5.56597e-015
lhumerus -44.7925 3.95507 77.9999
lradius 40.6148
lwrist -7.0943
lhand -8.46851 -33.3439
lfingers 7.12502
lthumb 17.458 -4.10788
rfemur 3.64702 20.8815 36.2636
rtibia 13.3318
rfoot -16.2627 -33.0249
rtoes 9.50431
lfemur -30.229 -2.33477 -19.3601
ltibia 64.9943
lfoot -15.7552 2.44551
ltoes -29.3877
144
root 8.41165 15.2358 32.522 179.252 -1.2796 -176.662
lowerback 7.93191 2.55302 1.81286
upperback -4.01519 3.51664 -0.885321
thorax -8.53565 1.56056 -2.48139
lowerneck -5.84511 -4.90612 -9.99976
upperneck 11.2124 -7.31582 11.1069
head 5.08467 -3.53442 4.6226
rclavicle 5.97348e-014 1.43125e-014
rhumerus -34.9746 12.4904 -90.1019
rradius 35.009
rwrist 13.9801
rhand -2.11263 -54.7093
rfingers 7.12502
rthumb 23.5654 -83.2856
lclavicle 5.97348e-014 1.43125e-014
lhumerus -44.5586 4.32856 78.0032
lradius 40.3226
lwrist -6.98738
lhand -8.55869 -33.0569
lfingers 7.12502
lthumb 17.3712 -3.81321
rfemur 4.19939 21.0191 36.3153
rtibia 12.8195
rfoot -16.2563 -32.8705
rtoes 9.41698
lfemur -30.8553 -2.51293 -19.6331
ltibia 63.4694
lfoot -15.9194 2.83434
ltoes -30.5225
